<?xml version="1.0" encoding="UTF-8"?><svg fill-opacity="1" color-rendering="auto" color-interpolation="auto" text-rendering="auto" stroke="black" stroke-linecap="square" stroke-miterlimit="10" shape-rendering="auto" stroke-opacity="1" fill="black" preserveAspectRatio="xMinYMin meet" stroke-dasharray="none" font-weight="normal" stroke-width="1" viewBox="0 0 793 1122" font-family="'Dialog'" font-style="normal" stroke-linejoin="miter" font-size="12" stroke-dashoffset="0" image-rendering="auto" xmlns="http://www.w3.org/2000/svg">
<!--Generated by the Batik Graphics2D SVG Generator-->
<defs id="genericDefs"/>
<g>
<defs id="defs1">
<clipPath clipPathUnits="userSpaceOnUse" id="clipPath1">
<path d="M0 0 L793 0 L793 1122 L0 1122 L0 0 Z"/>
</clipPath>
<clipPath clipPathUnits="userSpaceOnUse" id="clipPath2">
<path d="M0 1062 L0 1078 L793 1078 L793 1062 Z"/>
</clipPath>
<clipPath clipPathUnits="userSpaceOnUse" id="clipPath3">
<path d="M30 37 L30 57 L757 57 L757 37 Z"/>
</clipPath>
<clipPath clipPathUnits="userSpaceOnUse" id="clipPath4">
<path d="M30 61 L30 81 L757 81 L757 61 Z"/>
</clipPath>
<clipPath clipPathUnits="userSpaceOnUse" id="clipPath5">
<path d="M30 84 L30 104 L757 104 L757 84 Z"/>
</clipPath>
<clipPath clipPathUnits="userSpaceOnUse" id="clipPath6">
<path d="M30 107 L30 125 L757 125 L757 107 Z"/>
</clipPath>
<clipPath clipPathUnits="userSpaceOnUse" id="clipPath7">
<path d="M30 121 L30 139 L757 139 L757 121 Z"/>
</clipPath>
<clipPath clipPathUnits="userSpaceOnUse" id="clipPath8">
<path d="M30 0 L30 323 L757 323 L757 0 Z"/>
</clipPath>
<clipPath clipPathUnits="userSpaceOnUse" id="clipPath9">
<path d="M30 162 L30 180 L757 180 L757 162 Z"/>
</clipPath>
<clipPath clipPathUnits="userSpaceOnUse" id="clipPath10">
<path d="M30 175 L30 193 L757 193 L757 175 Z"/>
</clipPath>
<clipPath clipPathUnits="userSpaceOnUse" id="clipPath11">
<path d="M30 189 L30 212 L757 212 L757 189 Z"/>
</clipPath>
<clipPath clipPathUnits="userSpaceOnUse" id="clipPath12">
<path d="M30 227 L30 245 L757 245 L757 227 Z"/>
</clipPath>
<clipPath clipPathUnits="userSpaceOnUse" id="clipPath13">
<path d="M30 241 L30 259 L757 259 L757 241 Z"/>
</clipPath>
<clipPath clipPathUnits="userSpaceOnUse" id="clipPath14">
<path d="M30 255 L30 278 L757 278 L757 255 Z"/>
</clipPath>
<clipPath clipPathUnits="userSpaceOnUse" id="clipPath15">
<path d="M30 273 L30 291 L757 291 L757 273 Z"/>
</clipPath>
<clipPath clipPathUnits="userSpaceOnUse" id="clipPath16">
<path d="M30 301 L30 319 L757 319 L757 301 Z"/>
</clipPath>
<clipPath clipPathUnits="userSpaceOnUse" id="clipPath17">
<path d="M0 324 L0 350 L793 350 L793 324 Z"/>
</clipPath>
</defs>
<g fill="white" stroke="white">
<rect x="0" width="793" height="1122" y="0" clip-path="url(#clipPath1)" stroke="none"/>
</g>
<g fill="blue" font-size="11" font-family="'Lucida Sans'" stroke="blue">
<text x="210.5374 216.436 222.324 228.98 238.292 245.0334 255.1454 260.5854 267.2094 274.9427 281.684 291.796 300.5 306.2174 314.5054 321.2467 330.4307 337.8227 343.508 350.868 353.94 360.6813 369.8333 378.1213 384.8627 390.644 396.5427 402.7187 410.1 417.4814 424.8627 430.6121 439.8814 448.5854 455.5614 461.5028 465.8654 471.3055 474.3881 480.9375 490.9321 497.6414 507.6361 514.3774 521.1188 526.7081 533.4495 540.1908 545.7802 552.5215" xml:space="preserve" y="1073.0508" stroke="none">Page14sur19–FORMULAIREOTEP-CCCSP–Versiondu21/03/11</text>
</g>
<g fill="red" font-size="13" font-weight="bold" font-family="'Lucida Sans'" stroke="red">
<text x="80.0003 88.3365 96.3708 100.4572 108.7178 117.9592 126.2576 129.3633 137.6617 142.3264 149.5812 153.6675 165.1847 177.3808 184.7739 189.8661 197.2341 202.955 207.0413 214.4093 222.6448 226.7312 234.9919 242.0958 247.188 254.5811 258.6674 262.7538 270.1217" xml:space="preserve" y="51.0067" stroke="none">point1.4),lematérielinstallé.</text>
<text x="94.2137 103.0024 111.0368 119.2975 130.5506 138.8867 146.2547 153.7107 161.0787 172.6587 180.9948 186.7157 194.0837 202.3444 210.6805 216.4014 227.9185 234.6076 242.6419 250.9026 259.1633 266.5564 270.6427 277.7467 284.8506 292.2437 300.5044 307.1935 318.7106 327.0468 339.4566 347.7928 355.8271 362.5161 370.7768 382.973 390.3409 398.6016 407.843 414.532 418.6184 426.6527 434.9889 442.3568 449.4608 456.5647 464.5991 472.8598 483.2971" xml:space="preserve" y="74.2933" stroke="none">Vousdevezprendreconnaissancedudocumentci-dessous:</text>
<text fill="blue" x="80.0003 87.7078 96.3834 106.7312 115.4068 125.7547 134.7069 145.0548 152.3724 164.0782 174.0489 185.7547 197.1712 201.3456 208.5249 220.2307 233.6339 243.6046 247.7789 254.9583 262.6657 273.0136 280.193 284.3673 293.0429 297.2173 307.5651 321.3832 331.3538 343.0596 354.4762 363.7302 372.4058 379.9623 388.6379 392.8123 400.3689" xml:space="preserve" y="97.5867" stroke="none">PROTOCOLEDEMISEADISPOSITIONDEMATERIEL</text>
</g>
<g fill="blue" font-family="'Lucida Sans'" stroke="blue">
<text x="300.2553 306.7593 315.6273 324.3033 332.5833 341.2593 347.7633 358.0953 364.5993 373.4673 381.0514 391.3113 400.2993 412.4073 418.8753 422.3313 431.0073 439.8753 448.1553 455.7393 464.0193 467.4753 475.0594 484.5634" xml:space="preserve" y="119.572" stroke="none">ENGAGEMENTSDUSIGNATAIRE:</text>
<line clip-path="url(#clipPath6)" fill="none" text-rendering="optimizeSpeed" x1="301" x2="488" y1="121" y2="121"/>
<text x="218.3131 224.899 231.5302 241.658 249.1605 254.3093 260.9404 267.334 273.3541 278.5029 282.1806 289.6831 294.2661 297.9438 305.1747 312.6093 322.7371 328.7572 332.4349 339.6659 346.3197 353.8222 358.9709 365.6021 375.7299 382.3611 389.7957 397.2643 403.9181 411.3867 418.0178 425.4524 433.7697 437.4474 447.8355 452.9843 459.6154 466.009 473.5115 480.7424 488.177 494.5706 501.2244 508.7269 512.4045 516.0822 519.7599 524.3429 534.7083 542.2108 553.3797 559.7733 563.4509 570.9195 578.3541 585.0079 589.5909 596.2448 599.9224 605.0712 614.7024" xml:space="preserve" y="133.576" font-weight="bold" stroke="none">Lesprescriptionsci-aprèsengagentlaresponsabilitédusignataire:</text>
<line clip-path="url(#clipPath7)" fill="none" text-rendering="optimizeSpeed" x1="219" x2="617" y1="135" y2="135"/>
<text x="125.0003 131.3963 138.0804 147.9924 151.4604 158.9124 165.0323 169.5204 176.1443 179.6124 183.0804 189.7043 194.1924 197.6604 205.0284 212.4803 222.3923 233.6003 237.0683 243.1883 249.8723 259.7843 266.4683 277.7123 285.2603 288.7283 295.3523 301.4963 311.9723 319.5203 326.1443 334.8443 338.3123 348.7882 354.9082 361.5922 366.5002 372.7162 376.1842 382.3282 392.8042 396.2722 403.6402 411.1282 414.5962 420.7162 425.2042 428.6722 436.2202 443.6722 454.1482 458.5641 465.2481 471.3681 475.8561 479.3241 485.5401 489.0081 493.4961 500.1801 510.0921 517.5441 528.0201 535.5681 542.9361 546.4041 552.6201 559.3041 566.7562 575.0361 582.5841 589.2081 599.1201 605.8041 610.2921 615.2001 625.6761 636.8842 644.2521 651.8001 655.2681 659.6841 663.1522 669.8362 676.5202 682.6402 690.2242 697.8082 705.1761 712.6282 717.1161" xml:space="preserve" y="159.084" stroke="none">Lesinstallationsmisesenplaceparleservicelogistiquefestivitésnedoiventpasêtremodifiées.Toute</text>
<text x="78.467 89.675 97.043 104.591 108.059 112.475 115.943 122.087 128.711 133.199 136.667 144.035 155.279 162.647 173.891 181.343 185.831 189.299 192.767 196.235 202.355 208.979 213.467 216.935 224.303 235.547 239.015 246.467 252.611 259.979 264.887 269.795 276.479 282.623 287.111 297.587 305.135 316.379 327.587 334.211 338.699 345.383 350.291 353.7589 360.4429 367.7029 378.9109 382.3789 392.2909 402.7069 410.2549 413.7229 419.8429 427.3909 434.7589 440.8789 444.3469 448.8349 452.3029 459.6709 470.9149 477.5988 485.0508 492.5388 499.1628 506.6508 517.1268 520.5948 527.2789 534.7668 541.3909 544.8589 551.5429 562.7509 569.4349 576.887 585.1669 588.6349 599.051 603.959 610.643 616.763 624.311 631.679 639.131 645.251 651.875 659.423 662.891 666.359 669.827 674.315 684.791 692.339" xml:space="preserve" y="173.92" stroke="none">modificationouutilisationincorrectedumatérielmisàdispositionengagelégalementlaresponsabilitédu</text>
<text x="78.467 84.587 88.055 95.543 102.995 109.619 114.107 120.731 124.199 129.107 135.791" xml:space="preserve" y="187.9" stroke="none">signataire.</text>
<text x="125.0003 131.3963 135.1884 141.8724 153.0804 160.6284 165.5364 172.9884 180.4404 184.9284 191.6124 199.0644 207.7644 213.8844 217.6764 224.3604 231.8124 239.3004 245.9244 253.4124 263.8884 274.3044 279.2123 285.8963 293.3483 300.8963 305.8043 316.2803 319.7483 330.2243 341.4323 348.0563 352.5443 359.2283 364.1363 367.6042 374.2882 381.5482 389.0962 394.0042 400.6882 405.1762 415.6522 422.3362 433.5802 441.1282 447.7522 452.6602 457.0761 463.7001 467.1681 475.4481 482.1321 486.6201 493.2441 501.5241 509.0721 519.5481 523.9641 531.3321 538.7841 544.9281 549.4161 552.8841 560.2521 567.7041 575.1561 581.8401 593.0482 599.7322 607.1842 611.6722" xml:space="preserve" y="205.684" stroke="none">L’emprunteurs’engageàrendrelematérielprêtéenparfaitétatdefonctionnement.</text>
<text x="125.0003 131.3963 135.1884 141.8724 153.0804 160.6284 165.5364 172.9884 180.4404 184.9284 191.6124 199.0644 207.7644 215.3124 221.9964 228.2124 233.1204 243.5364 249.6564 257.0244 264.4764 270.5964 276.7404 281.6484 285.1164 290.0244 300.5003 307.9523 315.4043 325.8803 332.5043 338.6243 344.7443 352.1963 357.1043 363.7283 371.1803 377.3243 387.8003 393.9443 401.3123 408.7643 414.9803 419.8883 426.5123 433.9643 442.2443 446.7323 454.1003 461.5523 469.8323 474.7403 478.2083 484.3282 491.8763 499.3282 509.8042 517.3522 527.8282 534.0443 541.4122 544.8802 552.4642 560.0122 566.6962 571.6042 576.0922 586.5682 593.9362 605.1802 612.7282 619.4122 623.9002 630.5842 635.4922 638.9603 646.3282 651.2363 657.8603 662.3483 665.8163 673.1843 680.6363 688.2203 695.8043 703.1722 710.6243" xml:space="preserve" y="224.324" stroke="none">L’emprunteurdevrasouscrireuneassurancecouvranttoutrisquedevol,perteoudétérioration.Tout</text>
<text x="78.467 89.675 96.299 100.787 107.471 112.379 115.847 122.531 129.791 140.999 147.623 155.075 162.623 170.075 176.699 184.151 192.431 199.799 211.043 218.591 225.275 229.763 236.447 241.355 244.823 252.191 257.099 267.575 277.991 284.111 291.479 302.723 307.631 314.3149 318.8029 326.171 333.623 342.3229 346.7389 353.4229 358.3309 368.7469 372.2149 376.0069 383.3749 390.9229 394.5709 401.2549 409.5349 417.0829 420.8749 428.3269 435.7789 446.2549 453.8029 460.4868 471.6949 478.3188 485.7708 493.3188 503.7948 511.3428 521.8188 526.7269 533.4109 544.6189 552.1669 555.6349 562.2589 568.4029 575.0869 586.2949 592.9789 600.431 608.7109 619.127 622.595 633.011 639.155 646.607 653.231 658.139 665.627 676.103 683.651 694.127 697.595" xml:space="preserve" y="239.16" stroke="none">matérielmanquantoudétérioréàsonretourferal’objetd’unedemandederemplacementàlachargedel’</text>
<text x="78.467 85.151 96.359 103.907 108.815 116.267 123.719 128.207 134.891 142.343 147.251" xml:space="preserve" y="253.14" stroke="none">emprunteur.</text>
<text x="125.0003 131.3963 141.8123 149.6604 153.1284 156.5964 160.0644 170.5404 178.0884 188.5644 194.9604 201.2244 208.5924 216.0444 223.6284 231.1764 237.8004 246.5004 249.9684 253.7604 257.2284 264.6804 269.1684 275.8524 280.7604 291.9684 298.6524 306.2004 309.6684 316.2924 319.7604 324.6684 335.1443 342.6924 353.1683 356.6363 367.0523 376.0403 379.5083 384.4163 391.1003 397.2443 401.7323 405.2003 412.5683 423.8123 430.2083 437.5763 445.0643 448.5323 454.6523 459.1403 462.6083 470.1563 477.6083 488.0843 496.7603 503.3842 508.2922 514.9163 522.4042 532.8802 539.5643 547.8442 554.2762 560.9603 567.0803 571.5682 575.0363 581.2523 584.7203 589.2083 595.8923 602.0123 609.5963 617.0483 627.5243 635.0723 642.4402 649.8923 654.8003 659.7083 670.1243 676.8083 688.0524 694.6764 702.1284 708.2724 715.7244 726.9684 733.1124 739.7365" xml:space="preserve" y="270.924" stroke="none">LaVilledeLyon,parl’intermédiairedelaDirectionLogistiqueGarageetFestivités,nepourraenaucuncas</text>
<text x="78.467 85.151 89.639 94.547 105.023 109.511 116.195 123.647 131.099 141.575 149.123 156.491 163.943 172.643 177.551 184.235 190.355 197.903 205.271 212.723 218.843 225.467 233.015 236.483 246.959 250.427 257.795 262.703 272.615 280.163 283.955 291.407 302.651 308.771 312.239 319.691 323.159 329.279 333.767 338.675 349.1509 356.519 367.7629 375.3109 379.1029 386.5549 397.7989 404.4229 410.5669 416.7109 420.1789 427.7269 434.4109 441.8629 450.1429 457.6909 465.0589 472.5109 478.7269 485.3509 492.8029 501.0829 507.2029 514.6549 519.5629 525.7789 532.463 539.915 543.383 552.083 555.551 562.919 567.827 577.739 585.287 595.763 599.231 603.023 610.475 616.595 623.2191 630.707 641.183 648.731 659.207 665.327 672.695 683.939 695.147 701.7711 706.259 712.9431 717.8511 721.3191 728.0031" xml:space="preserve" y="285.76" stroke="none">êtretenuepourresponsablelorsd’unsinistreoud’unaccidentpouvantsurvenirlorsdel’usagedesonmatériel</text>
<text x="78.467 82.367 89.819 94.307 97.775 101.243 104.711 110.831 117.455 121.943 125.411 132.779 144.023 151.391 162.635 173.843 180.467 187.919 191.387 198.935 206.387 209.855 216.479 220.967 224.435 231.803 243.047 250.595 257.219 265.919 273.371 284.615 291.983 303.227 310.775 314.243 321.695 327.815 331.283 337.9669 345.4189 350.3269 360.2389 364.7269 368.1949 374.8789 379.7869 385.9069 393.5989 405.6709 411.8149 422.2909 426.7789 430.2469 434.7349 439.6429 446.3268 453.9108 457.3788 461.1708 467.8548 479.0628 486.6108 491.5188 498.9708 506.4228 510.9108 517.5948 525.0468 533.7468 541.2948 547.9788 554.1228 557.5908 564.2148 569.1229 579.5989 587.0509 590.8429 597.5269 604.9789 612.4669 619.0909 626.5789 633.2629 641.963 648.587 656.039 662.183 669.635 677.087 687.563 695.111 702.479 709.931 714.8391 720.959 728.4111 731.8791 736.3671 746.8431 754.2951" xml:space="preserve" y="299.74" stroke="none">(utilisationoumanipulationparunouplusieurstiers)Acetitre,l’emprunteurdéclaren’engageraucunepoursuiteni</text>
<text x="78.467 83.375 90.059 96.203 103.571 111.023 115.931 125.843 131.987 139.355 146.807 151.295 156.203 166.679 170.147 173.939 180.563 188.111 199.319 202.787 210.239 213.707 219.827 224.315 229.223 235.847 240.335 243.803 251.171 262.415 273.623 281.075 288.527 291.995 298.139 301.607 309.155 315.779 319.247 329.723 337.091 348.335 354.455 361.139 371.051 375.959 382.6429 390.1909 395.0989 401.7829 407.9029 414.5869 422.0389 426.5269 433.1509 440.6029 445.0909 451.2109" xml:space="preserve" y="313.72" stroke="none">recourscontrel’administrationmunicipaleousesreprésentants.</text>
<rect x="30" y="37" clip-path="url(#clipPath1)" fill="red" width="245" text-rendering="optimizeSpeed" height="1" stroke="none"/>
<rect x="29" y="38" clip-path="url(#clipPath1)" fill="red" width="1" text-rendering="optimizeSpeed" height="285" stroke="none"/>
<rect x="30" y="323" clip-path="url(#clipPath1)" fill="red" width="245" text-rendering="optimizeSpeed" height="1" stroke="none"/>
<rect x="29" y="323" clip-path="url(#clipPath1)" fill="red" width="1" text-rendering="optimizeSpeed" height="1" stroke="none"/>
<rect x="29" y="37" clip-path="url(#clipPath1)" fill="red" width="1" text-rendering="optimizeSpeed" height="1" stroke="none"/>
<rect x="276" y="37" clip-path="url(#clipPath1)" fill="red" width="37" text-rendering="optimizeSpeed" height="1" stroke="none"/>
<rect x="276" y="323" clip-path="url(#clipPath1)" fill="red" width="37" text-rendering="optimizeSpeed" height="1" stroke="none"/>
<rect x="275" y="323" clip-path="url(#clipPath1)" fill="red" width="1" text-rendering="optimizeSpeed" height="1" stroke="none"/>
<rect x="275" y="37" clip-path="url(#clipPath1)" fill="red" width="1" text-rendering="optimizeSpeed" height="1" stroke="none"/>
<rect x="314" y="37" clip-path="url(#clipPath1)" fill="red" width="130" text-rendering="optimizeSpeed" height="1" stroke="none"/>
<rect x="314" y="323" clip-path="url(#clipPath1)" fill="red" width="130" text-rendering="optimizeSpeed" height="1" stroke="none"/>
<rect x="313" y="323" clip-path="url(#clipPath1)" fill="red" width="1" text-rendering="optimizeSpeed" height="1" stroke="none"/>
<rect x="313" y="37" clip-path="url(#clipPath1)" fill="red" width="1" text-rendering="optimizeSpeed" height="1" stroke="none"/>
<line clip-path="url(#clipPath1)" fill="red" text-rendering="optimizeSpeed" x1="445" x2="445" y1="37" y2="38" stroke="none"/>
<line clip-path="url(#clipPath1)" fill="red" text-rendering="optimizeSpeed" x1="445" x2="445" y1="323" y2="324" stroke="none"/>
<rect x="444" y="323" clip-path="url(#clipPath1)" fill="red" width="1" text-rendering="optimizeSpeed" height="1" stroke="none"/>
<rect x="444" y="37" clip-path="url(#clipPath1)" fill="red" width="1" text-rendering="optimizeSpeed" height="1" stroke="none"/>
<rect x="446" y="37" clip-path="url(#clipPath1)" fill="red" width="130" text-rendering="optimizeSpeed" height="1" stroke="none"/>
<rect x="446" y="323" clip-path="url(#clipPath1)" fill="red" width="130" text-rendering="optimizeSpeed" height="1" stroke="none"/>
<rect x="445" y="323" clip-path="url(#clipPath1)" fill="red" width="1" text-rendering="optimizeSpeed" height="1" stroke="none"/>
<rect x="445" y="37" clip-path="url(#clipPath1)" fill="red" width="1" text-rendering="optimizeSpeed" height="1" stroke="none"/>
<line clip-path="url(#clipPath1)" fill="red" text-rendering="optimizeSpeed" x1="577" x2="577" y1="37" y2="38" stroke="none"/>
<line clip-path="url(#clipPath1)" fill="red" text-rendering="optimizeSpeed" x1="577" x2="577" y1="323" y2="324" stroke="none"/>
<rect x="576" y="323" clip-path="url(#clipPath1)" fill="red" width="1" text-rendering="optimizeSpeed" height="1" stroke="none"/>
<rect x="576" y="37" clip-path="url(#clipPath1)" fill="red" width="1" text-rendering="optimizeSpeed" height="1" stroke="none"/>
<rect x="578" y="37" clip-path="url(#clipPath1)" fill="red" width="9" text-rendering="optimizeSpeed" height="1" stroke="none"/>
<rect x="578" y="323" clip-path="url(#clipPath1)" fill="red" width="9" text-rendering="optimizeSpeed" height="1" stroke="none"/>
<rect x="577" y="323" clip-path="url(#clipPath1)" fill="red" width="1" text-rendering="optimizeSpeed" height="1" stroke="none"/>
<rect x="577" y="37" clip-path="url(#clipPath1)" fill="red" width="1" text-rendering="optimizeSpeed" height="1" stroke="none"/>
<rect x="588" y="37" clip-path="url(#clipPath1)" fill="red" width="56" text-rendering="optimizeSpeed" height="1" stroke="none"/>
<rect x="588" y="323" clip-path="url(#clipPath1)" fill="red" width="56" text-rendering="optimizeSpeed" height="1" stroke="none"/>
<rect x="587" y="323" clip-path="url(#clipPath1)" fill="red" width="1" text-rendering="optimizeSpeed" height="1" stroke="none"/>
<rect x="587" y="37" clip-path="url(#clipPath1)" fill="red" width="1" text-rendering="optimizeSpeed" height="1" stroke="none"/>
<rect x="645" y="37" clip-path="url(#clipPath1)" fill="red" width="18" text-rendering="optimizeSpeed" height="1" stroke="none"/>
<rect x="645" y="323" clip-path="url(#clipPath1)" fill="red" width="18" text-rendering="optimizeSpeed" height="1" stroke="none"/>
<rect x="644" y="323" clip-path="url(#clipPath1)" fill="red" width="1" text-rendering="optimizeSpeed" height="1" stroke="none"/>
<rect x="644" y="37" clip-path="url(#clipPath1)" fill="red" width="1" text-rendering="optimizeSpeed" height="1" stroke="none"/>
<rect x="664" y="37" clip-path="url(#clipPath1)" fill="red" width="93" text-rendering="optimizeSpeed" height="1" stroke="none"/>
<rect x="664" y="323" clip-path="url(#clipPath1)" fill="red" width="93" text-rendering="optimizeSpeed" height="1" stroke="none"/>
<rect x="757" y="38" clip-path="url(#clipPath1)" fill="red" width="1" text-rendering="optimizeSpeed" height="285" stroke="none"/>
<rect x="757" y="37" clip-path="url(#clipPath1)" fill="red" width="1" text-rendering="optimizeSpeed" height="1" stroke="none"/>
<rect x="757" y="323" clip-path="url(#clipPath1)" fill="red" width="1" text-rendering="optimizeSpeed" height="1" stroke="none"/>
<rect x="663" y="323" clip-path="url(#clipPath1)" fill="red" width="1" text-rendering="optimizeSpeed" height="1" stroke="none"/>
<rect x="663" y="37" clip-path="url(#clipPath1)" fill="red" width="1" text-rendering="optimizeSpeed" height="1" stroke="none"/>
</g>
<g font-family="'Lucida Sans'" font-size="19" font-weight="bold">
<text x="56.7333 62.5774 74.8817 79.2296 85.0736 98.6101 108.714 123.201 135.3468 151.3301 164.2856 176.4315 182.2756 196.7626 210.299 226.159 238.6921 253.1791 269.1624 279.9528 290.1975 300.7767 316.7599 327.3391 340.8756 353.0214 365.977 371.8211 383.9669 394.5461" xml:space="preserve" y="342.5107" stroke="none">IV.INFORMATIONSCOMPLEMENTAIRES</text>
<line clip-path="url(#clipPath17)" fill="none" text-rendering="optimizeSpeed" x1="57" x2="404" y1="345" y2="345"/>
</g>
</g>
</svg>
