<?xml version="1.0" encoding="UTF-8"?><svg fill-opacity="1" color-rendering="auto" color-interpolation="auto" text-rendering="auto" stroke="black" stroke-linecap="square" stroke-miterlimit="10" shape-rendering="auto" stroke-opacity="1" fill="black" preserveAspectRatio="xMinYMin meet" stroke-dasharray="none" font-weight="normal" stroke-width="1" viewBox="0 0 793 1122" font-family="'Dialog'" font-style="normal" stroke-linejoin="miter" font-size="12" stroke-dashoffset="0" image-rendering="auto" xmlns="http://www.w3.org/2000/svg">
<!--Generated by the Batik Graphics2D SVG Generator-->
<defs id="genericDefs"/>
<g>
<defs id="defs1">
<clipPath clipPathUnits="userSpaceOnUse" id="clipPath1">
<path d="M0 0 L793 0 L793 1122 L0 1122 L0 0 Z"/>
</clipPath>
<clipPath clipPathUnits="userSpaceOnUse" id="clipPath2">
<path d="M0 1062 L0 1078 L793 1078 L793 1062 Z"/>
</clipPath>
<clipPath clipPathUnits="userSpaceOnUse" id="clipPath3">
<path d="M21 37 L21 60 L748 60 L748 37 Z"/>
</clipPath>
<clipPath clipPathUnits="userSpaceOnUse" id="clipPath4">
<path d="M21 56 L21 74 L748 74 L748 56 Z"/>
</clipPath>
<clipPath clipPathUnits="userSpaceOnUse" id="clipPath5">
<path d="M21 78 L21 100 L748 100 L748 78 Z"/>
</clipPath>
<clipPath clipPathUnits="userSpaceOnUse" id="clipPath6">
<path d="M21 96 L21 119 L748 119 L748 96 Z"/>
</clipPath>
<clipPath clipPathUnits="userSpaceOnUse" id="clipPath7">
<path d="M21 115 L21 133 L748 133 L748 115 Z"/>
</clipPath>
<clipPath clipPathUnits="userSpaceOnUse" id="clipPath8">
<path d="M21 129 L21 147 L748 147 L748 129 Z"/>
</clipPath>
<clipPath clipPathUnits="userSpaceOnUse" id="clipPath9">
<path d="M21 150 L21 172 L748 172 L748 150 Z"/>
</clipPath>
<clipPath clipPathUnits="userSpaceOnUse" id="clipPath10">
<path d="M21 169 L21 192 L748 192 L748 169 Z"/>
</clipPath>
</defs>
<g fill="white" stroke="white">
<rect x="0" width="793" height="1122" y="0" clip-path="url(#clipPath1)" stroke="none"/>
</g>
<g fill="blue" font-size="11" font-family="'Lucida Sans'" stroke="blue">
<text x="210.5374 216.436 222.324 228.98 238.292 245.0334 255.1454 260.5854 267.2094 274.9427 281.684 291.796 300.5 306.2174 314.5054 321.2467 330.4307 337.8227 343.508 350.868 353.94 360.6813 369.8333 378.1213 384.8627 390.644 396.5427 402.7187 410.1 417.4814 424.8627 430.6121 439.8814 448.5854 455.5614 461.5028 465.8654 471.3055 474.3881 480.9375 490.9321 497.6414 507.6361 514.3774 521.1188 526.7081 533.4495 540.1908 545.7802 552.5215" xml:space="preserve" y="1073.0508" stroke="none">Page17sur19–FORMULAIREOTEP-CCCSP–Versiondu21/03/11</text>
<text x="122.7333 129.2373 140.4813 146.6253 153.2493 163.1613 170.7093 181.1853 188.7334 195.4174 202.9054 207.8134 214.4374 221.9854 228.6094 233.0974 236.5654 243.9334 251.3854 258.9694 262.4373 272.9133 279.0333 282.5013 289.9893 297.4413 304.0653 308.5533 315.1773 318.6453 323.5533 334.0293 340.1493 343.9413 350.6252 358.0772 365.5652 372.1892 379.6772 390.1532 400.5692 408.1172 413.0252 419.7092 427.1612 434.7092 439.6172 450.0932 456.7772 468.0211 474.1652 481.6172 488.2411 493.1491 500.6371 511.1131 514.5811 521.2651 531.1771 535.5931 540.5012 547.1252 550.5932 560.5052 568.0532 578.5292 583.4372 590.1212 601.3292 604.7972 610.9172 621.3932 628.0773 639.3213 646.0053 650.4933 657.1173 665.3973 672.9453 680.3973 687.6573 692.0733 698.7573 703.6653 711.0333 718.4854 726.7653 730.2333" xml:space="preserve" font-size="12" y="53.516" stroke="none">Encasdedégradation,lesignataires’engageàprendreenchargelesfraisderemiseenétatquiferontl’</text>
<text x="77.7333 85.1013 92.6493 96.2973 102.9813 111.2613 118.8093 122.6013 130.0533 141.2973 146.2053 152.8893 159.0333 166.4013 173.8533 180.0693 184.9773 191.6613 202.8694 209.5534 217.0054 225.2854 232.8334 239.4574 248.1574 251.6254 262.0414 269.6254 274.5334 281.2174 287.3374 294.7054 299.6134 306.2974 311.2054 314.6733 325.1493 335.4813 342.9333 350.3853 353.8533 359.9973 363.4653 371.0133 377.6373 381.1053 391.5813 399.1293 409.6053 416.0013 422.2653 429.6333 437.0853" xml:space="preserve" font-size="12" y="68.352" stroke="none">objetd’unrecouvrementparlaTrésorerieMunicipaledeLyon.</text>
<text x="77.7333 89.2133 93.0533 100.24 111.68 118.9067 132.9734 140.16 147.3867 155.8134 164.5334 168.3734 177.6 189.04 199.0267 210.4667 217.5734 221.7867 230.9867 239.4134 250.8934 261.2534 265.0934 273.52 284.96 292.1867 302.5467 311.7867 315.6267 323 330.2267 341.6667 351.6533 363.0933 372.32 381.52 391.5067 398.7333 408.5866 417.7867" xml:space="preserve" font-size="13" y="93.2947" stroke="none">MISEENSERVICEDEL’ARMOIREEQUIPEEDECADENAS</text>
<line clip-path="url(#clipPath5)" fill="none" text-rendering="optimizeSpeed" x1="78" x2="424" y1="95" y2="95"/>
<text x="77.7333" xml:space="preserve" font-size="16" y="112.3187" clip-path="url(#clipPath6)" stroke="none">-</text>
<text x="92.0533 101.0413 107.7253 113.9413 120.6253 125.5333 130.4413 137.8093 145.2613 148.7293 152.1973 155.6653 162.3493 171.0493 174.5173 184.9934 192.5414 199.9094 207.3614 211.8494 219.2174 230.4614 239.7494 245.8934 253.2614 260.7133 272.0533 279.6013 290.0773 297.6253 304.9933 308.4613 315.9133 326.4013 336.4813 342.6013 346.0693 350.5573 358.0093 368.4853 374.6053 382.0573 390.7573 394.2253 404.7012 410.8452 418.2133 422.7013 433.1772 440.7253 445.6332 453.0013 456.4692" xml:space="preserve" font-size="12" y="112.3187" stroke="none">Déverrouillerlebouton«coupdepoing»situésurlecôtédroit</text>
<text x="77.7333 88.4733 96.7533 101.6613 112.8693 119.5533 128.2533 131.7213 142.1973 149.7453 153.2133 159.3333 162.9813 170.3493 177.8013 183.9453 188.4333 195.1173 202.5693 211.2693 216.1774 222.8614 230.4094 237.0934 242.0014 252.4774 261.7654 269.2534 275.9374 283.3894 290.0734 294.9814 301.6053 308.0733 318.1533 324.8373 336.0813 339.5493 346.2333 352.4493 359.0733 366.5253 374.8053 378.2733 388.6892 396.2372 403.6053 407.0732 414.5612 422.0132 428.6972 439.1732 446.7212 450.5132 457.1372 462.0452 473.2532 479.9372 491.1452 497.8292 505.2812 513.5612 517.4612 524.1453 535.3893 539.8053 546.4293 552.5733 559.1973 566.7453 573.4293" xml:space="preserve" font-size="12" y="127.1547" stroke="none">-Armerledisjoncteurrepéré«général»enlevantlapoignéed’armement(enfaçade)</text>
<text x="77.7333 88.4733 96.0573 102.7413 109.3653 112.8333 116.3013 122.4213 129.1053 137.8054 141.2734 151.6894 162.8974 169.5814 180.7894 191.2654 198.6334 206.1814 212.8654 217.7734 224.3974 228.8854 232.3534 239.7214 250.9654 258.5134 265.8814 273.3334 282.0334 285.5014 292.1854 302.0974 309.6454 313.1133 319.2333 322.8813 330.2494 337.7014 343.8454 348.3334 355.0174 362.4694 367.3773 377.2893 384.8373 395.3133 401.4573 408.9093 415.5333 423.0813 430.5333 441.0093 447.1533 450.6213 455.5293 461.6733 469.1253 472.5933 480.8733 488.3253 492.8133 496.2813 499.7493 503.2173 509.3372" xml:space="preserve" font-size="12" y="141.1347" stroke="none">-Réaliserlamêmeopérationpourlesdisjoncteursdechaquecircuitutilisé</text>
<text x="77.7333 89.2133 93.0533 100.24 111.68 121.48 131.84 140.2667 151.6667 160.0934 167.32 177.1734 184.36 188.2 198.56 212.6267 222.6133 234.0533 241.16 245.3734 254.5733 263 274.48 284.84 288.68 297.1067" xml:space="preserve" font-size="13" y="166.0773" stroke="none">MISEHORSTENSIONDEL’ARMOIRE</text>
<line clip-path="url(#clipPath9)" fill="none" text-rendering="optimizeSpeed" x1="78" x2="304" y1="168" y2="168"/>
<text x="77.7333" xml:space="preserve" font-size="16" y="185.1013" clip-path="url(#clipPath10)" stroke="none">-</text>
<text x="92.0533 98.5573 106.0093 110.4253 117.7933 125.2453 131.3893 138.0733 146.7734 150.2414 160.7174 170.0054 176.1494 183.5174 190.9694 202.3094 209.8574 220.3334 227.8814 235.2494 238.7174 246.1694 256.6574" xml:space="preserve" font-size="12" y="185.1013" stroke="none">Enfoncerle«coupdepoing»</text>
</g>
<g fill="red" text-rendering="optimizeSpeed" font-family="'Lucida Sans'" stroke="red">
<rect x="21" width="727" height="1" y="37" clip-path="url(#clipPath1)" stroke="none"/>
<rect x="20" width="1" height="157" y="38" clip-path="url(#clipPath1)" stroke="none"/>
<rect x="21" width="727" height="1" y="195" clip-path="url(#clipPath1)" stroke="none"/>
<rect x="748" width="1" height="157" y="38" clip-path="url(#clipPath1)" stroke="none"/>
<rect x="748" width="1" height="1" y="37" clip-path="url(#clipPath1)" stroke="none"/>
<rect x="748" width="1" height="1" y="195" clip-path="url(#clipPath1)" stroke="none"/>
<rect x="20" width="1" height="1" y="195" clip-path="url(#clipPath1)" stroke="none"/>
<rect x="20" width="1" height="1" y="37" clip-path="url(#clipPath1)" stroke="none"/>
</g>
</g>
</svg>
