<?xml version="1.0" encoding="UTF-8"?><svg fill-opacity="1" color-rendering="auto" color-interpolation="auto" text-rendering="auto" stroke="black" stroke-linecap="square" stroke-miterlimit="10" shape-rendering="auto" stroke-opacity="1" fill="black" preserveAspectRatio="xMinYMin meet" stroke-dasharray="none" font-weight="normal" stroke-width="1" viewBox="0 0 793 1122" font-family="'Dialog'" font-style="normal" stroke-linejoin="miter" font-size="12" stroke-dashoffset="0" image-rendering="auto" xmlns="http://www.w3.org/2000/svg">
<!--Generated by the Batik Graphics2D SVG Generator-->
<defs id="genericDefs"/>
<g>
<defs id="defs1">
<clipPath clipPathUnits="userSpaceOnUse" id="clipPath1">
<path d="M0 0 L793 0 L793 1122 L0 1122 L0 0 Z"/>
</clipPath>
<clipPath clipPathUnits="userSpaceOnUse" id="clipPath2">
<path d="M0 1062 L0 1078 L793 1078 L793 1062 Z"/>
</clipPath>
<clipPath clipPathUnits="userSpaceOnUse" id="clipPath3">
<path d="M21 37 L21 57 L748 57 L748 37 Z"/>
</clipPath>
<clipPath clipPathUnits="userSpaceOnUse" id="clipPath4">
<path d="M21 52 L21 72 L748 72 L748 52 Z"/>
</clipPath>
<clipPath clipPathUnits="userSpaceOnUse" id="clipPath5">
<path d="M21 68 L21 88 L748 88 L748 68 Z"/>
</clipPath>
<clipPath clipPathUnits="userSpaceOnUse" id="clipPath6">
<path d="M21 83 L21 103 L748 103 L748 83 Z"/>
</clipPath>
<clipPath clipPathUnits="userSpaceOnUse" id="clipPath7">
<path d="M21 99 L21 119 L748 119 L748 99 Z"/>
</clipPath>
<clipPath clipPathUnits="userSpaceOnUse" id="clipPath8">
<path d="M21 0 L21 597 L748 597 L748 0 Z"/>
</clipPath>
<clipPath clipPathUnits="userSpaceOnUse" id="clipPath9">
<path d="M21 130 L21 150 L748 150 L748 130 Z"/>
</clipPath>
<clipPath clipPathUnits="userSpaceOnUse" id="clipPath10">
<path d="M21 146 L21 166 L748 166 L748 146 Z"/>
</clipPath>
<clipPath clipPathUnits="userSpaceOnUse" id="clipPath11">
<path d="M21 161 L21 181 L748 181 L748 161 Z"/>
</clipPath>
<clipPath clipPathUnits="userSpaceOnUse" id="clipPath12">
<path d="M21 177 L21 197 L748 197 L748 177 Z"/>
</clipPath>
<clipPath clipPathUnits="userSpaceOnUse" id="clipPath13">
<path d="M21 192 L21 212 L748 212 L748 192 Z"/>
</clipPath>
<clipPath clipPathUnits="userSpaceOnUse" id="clipPath14">
<path d="M21 208 L21 228 L748 228 L748 208 Z"/>
</clipPath>
<clipPath clipPathUnits="userSpaceOnUse" id="clipPath15">
<path d="M21 223 L21 243 L748 243 L748 223 Z"/>
</clipPath>
<clipPath clipPathUnits="userSpaceOnUse" id="clipPath16">
<path d="M21 239 L21 259 L748 259 L748 239 Z"/>
</clipPath>
<clipPath clipPathUnits="userSpaceOnUse" id="clipPath17">
<path d="M21 254 L21 274 L748 274 L748 254 Z"/>
</clipPath>
<clipPath clipPathUnits="userSpaceOnUse" id="clipPath18">
<path d="M21 285 L21 305 L748 305 L748 285 Z"/>
</clipPath>
<clipPath clipPathUnits="userSpaceOnUse" id="clipPath19">
<path d="M21 316 L21 336 L748 336 L748 316 Z"/>
</clipPath>
<clipPath clipPathUnits="userSpaceOnUse" id="clipPath20">
<path d="M21 332 L21 352 L748 352 L748 332 Z"/>
</clipPath>
<clipPath clipPathUnits="userSpaceOnUse" id="clipPath21">
<path d="M21 347 L21 367 L748 367 L748 347 Z"/>
</clipPath>
<clipPath clipPathUnits="userSpaceOnUse" id="clipPath22">
<path d="M21 379 L21 399 L748 399 L748 379 Z"/>
</clipPath>
<clipPath clipPathUnits="userSpaceOnUse" id="clipPath23">
<path d="M21 410 L21 430 L748 430 L748 410 Z"/>
</clipPath>
<clipPath clipPathUnits="userSpaceOnUse" id="clipPath24">
<path d="M21 441 L21 461 L748 461 L748 441 Z"/>
</clipPath>
<clipPath clipPathUnits="userSpaceOnUse" id="clipPath25">
<path d="M21 456 L21 476 L748 476 L748 456 Z"/>
</clipPath>
<clipPath clipPathUnits="userSpaceOnUse" id="clipPath26">
<path d="M21 472 L21 492 L748 492 L748 472 Z"/>
</clipPath>
<clipPath clipPathUnits="userSpaceOnUse" id="clipPath27">
<path d="M21 503 L21 523 L748 523 L748 503 Z"/>
</clipPath>
<clipPath clipPathUnits="userSpaceOnUse" id="clipPath28">
<path d="M21 534 L21 554 L748 554 L748 534 Z"/>
</clipPath>
<clipPath clipPathUnits="userSpaceOnUse" id="clipPath29">
<path d="M21 565 L21 585 L748 585 L748 565 Z"/>
</clipPath>
<clipPath clipPathUnits="userSpaceOnUse" id="clipPath30">
<path d="M21 615 L21 635 L748 635 L748 615 Z"/>
</clipPath>
<clipPath clipPathUnits="userSpaceOnUse" id="clipPath31">
<path d="M21 631 L21 650 L748 650 L748 631 Z"/>
</clipPath>
<clipPath clipPathUnits="userSpaceOnUse" id="clipPath32">
<path d="M21 645 L21 665 L748 665 L748 645 Z"/>
</clipPath>
<clipPath clipPathUnits="userSpaceOnUse" id="clipPath33">
<path d="M21 661 L21 681 L748 681 L748 661 Z"/>
</clipPath>
<clipPath clipPathUnits="userSpaceOnUse" id="clipPath34">
<path d="M1 1 L792 1 L792 1121 L1 1121 L1 1 Z"/>
</clipPath>
<clipPath clipPathUnits="userSpaceOnUse" id="clipPath35">
<path d="M39 593 L39 610 L425 610 L425 593 Z"/>
</clipPath>
</defs>
<g fill="white" stroke="white">
<rect x="0" width="793" height="1122" y="0" clip-path="url(#clipPath1)" stroke="none"/>
</g>
<g fill="blue" font-size="11" font-family="'Lucida Sans'" stroke="blue">
<text x="213.908 219.8067 225.6947 232.3507 241.6627 251.7747 257.2147 263.8387 271.572 278.3134 288.4254 297.1294 302.8467 311.1347 317.876 327.06 334.452 340.1374 347.4973 350.5693 357.3107 366.4627 374.7507 381.492 387.2733 393.172 399.348 406.7294 414.1107 421.4921 427.2414 436.5107 445.2148 452.1908 458.1321 462.4948 467.9348 471.0175 477.5668 487.5615 494.2708 504.2654 511.0068 517.7481 523.3375 530.0788 536.8201 542.4095 549.1508" xml:space="preserve" y="1073.0508" stroke="none">Page6sur19–FORMULAIREOTEP-CCCSP–Versiondu21/03/11</text>
<text x="76.2 84.5867 92.7733 96.6267 105.8267 112.6533 120.08 126.88 133.68 141.1067 150.7733 155.76 163.9467 172.2267 177.2133 188.8533 196.2133 203.04 208.0267 211.88 218.7867 222.64 227.6266 239.2666 246.6933 255.8933 262.6933 274.3333 281.16 289.3466 297.6266 302.5333 310.72 316.1733 328.6267 336.0533 345.72 353.08 361.36 373.7467 377.6 385.88 392.68 397.6667 403.12 411.4 418.2267 423.2133 427.0667 435.2534 443.5334 454.5467 462.9333 470.36 481.3734 486.28 494.4667 499.92 506.7467 514.1734 525.1867 533.5734 545.2134 549.0667 553.28 561.4667 566.92 575.3066 580.7599 592.4 600.5866 613.08 621.4666 628.8933 639.9066 645.3599 652.7866 661.1733 666.6266 674.0533 680.8533 688.28 696.56 701.5467 708.9067 717.1867 722.1734" xml:space="preserve" font-size="13" y="50.48" stroke="none">doitcessertouteactivitéetseconformerauxinstructionsdesforcesdel’ordreoudesreprésentants</text>
<text x="76.2 84.5867 96.2267 100.08 104.2933 111.6533 119.9333 124.92 133.1067 138.56 142.4133 147.4 159.04 164.0267 171.4533 176.9067 182.36 186.2133 191.2 199.3867 204.84 208.6933 216.0533 219.9067 227.3333" xml:space="preserve" font-size="13" y="66.0133" stroke="none">del’autoritéterritoriale.</text>
<text x="76.2 83.3067 94.88 103.2667 107.12 112.5733 120 126.8267 131.8133 135.6667 143.8533 156.3467 164.7333 172.16 183.1733 190.4 197.2 205.5867 212.9467 219.7733 227.2 238.2133 246.9333 254.36 259.8134 264.8 275.8134 288.2667 295.6934 304.8934 316.4667 324.8534 328.7067 335.5067 343.8933 352.08 358.88 362.7333 367.72 371.5733 379.76 392.2534 400.5334 413.0267 416.88 420.7334 428.16 440.6534 449.04 457.32 465.7067 469.56 473.4134 484.4534 492.84 501.0267 509.3067 518.9733 527.2534 535.5334 547.1734 554.5334 561.36 566.3467 570.2001 577.1068 580.9601 585.9468 597.5868 605.9734 613.4001 618.8535 625.6534 633.8401 642.1201 650.4001 657.7601 661.6135 665.4668 672.2668 679.6935 690.4535 698.8801 706.3068 710.1602 714.0135 725.6535 733.9335" xml:space="preserve" font-size="13" y="81.5467" stroke="none">LadirectiondesEspacesVertsmetàdispositionunlieupublicpouruneactivitépersonnalisée;ellen’</text>
<text x="76.2 87.7733 96.16 103.52 114.5333 122.72 131.1067 134.96 138.8133 147.1333 154.4933 159.48 163.3333 171.52 184.0133 192.4 204.04 208.9467 217.1333 225.4133 230.8667 239.1467 243 252.6667 261.0533 268.48 279.4933 287.88 293.3333 300.76 307.56 312.5466 319.9066 324.8933 328.7466 336.9333 345.2133 356.2266 364.6133 370.0666 378.2533 383.16 390.5866 397.3866 404.1866 408.0399 416.2266 424.5066 432.7866 440.2133 444.0666 447.92 455.3466 462.1466 470.5733 478.8533 486.92 495.3066 506.9467 515.3333 520.7866 528.2133 537.4133 545.8 557.44 569.8933 577.2533 582.24 589.6667 595.12 598.9733 606.4 610.2534 618.68 627.0667 631.28 639.4666 647.7466 652.7333 656.5867 660.44 664.2933 671.6533 679.9733 687.4 695.8267 704.1067 712.1733 720.56" xml:space="preserve" font-size="13" y="97.08" stroke="none">apasobligationdefournirdesprestationsprofessionnelles,nideprêtdematériel,d’outillage,nide</text>
<text x="76.2 80.0533 88.24 95.0667 102.4267 110.7067 118.88" xml:space="preserve" font-size="13" y="112.6133" stroke="none">locaux.</text>
<text x="76.2 85.44 97.9333 104.76 112.9467 121.2267 128.0267 133.0133 140.3733 149.5733 157.96 169.6 173.4533 177.6667 185.0933 190.08 197.44 206.64 215.0267 227.52 234.32 238.1733 243.16 254.8 262.2267 269.0267 278.2267 285.6534 290.56 295.4667 302.8934 309.72 314.7067 322.9867 334.6267 341.9867 348.8934 356.2534 364.5334 373.7334 381.16 390.36 397.72 406.1067 411.56 418.9867 430 433.8534 445.4267 457.8801 465.2401 473.5201 477.3734 482.2801 489.7067 496.5067 501.4934 508.8534 513.8401 517.6934 525.8801 538.3734 545.8001 554.0801 559.0668 564.5201 576.1602 580.0135 584.2268 591.5868 599.9068 607.3335 615.6135 624.8135 633.2002 644.8402 657.2935 664.6535 668.5068 673.4935 678.9468 682.8002 689.6002 701.2402 709.4268 721.9202 725.7735" xml:space="preserve" font-size="13" y="128.1467" stroke="none">Unconstatdel’étatdusiteesteffectuéavantetaprèslamanifestationentrel’agentdemaîtriseoule</text>
<text x="76.2 83.0267 91.2133 99.4933 104.48 109.9333 118.12 121.9733 129.4 137.68 147.3467 155.7334 168.2267 175.0267 182.4534 189.28 194.2667 201.6933 209.9733 219.64 226.4667 234.6533 242.9333 249.76 257.1867 262.64 270.92 281.68 289.1067 298.3067 302.16 306.3734 314.5601 320.0134 328.3334 335.6934 343.9734 347.8268 354.6267 361.9868 366.9734 374.4001 382.6801 388.1334" xml:space="preserve" font-size="13" y="143.68" stroke="none">contrôleurdusecteurconcernéetl’organisateur.</text>
<text x="76.2 83.3067 94.88 100.3333 107.76 120.2133 124.0667 130.8667 142.5067 149.9333 162.4267 169.8533 174.84 182.2 191.4 199.7867 211.4267 216.4133 224.6 232.88 237.8667 249.5067 257.8933 265.32 273.64 279.0933 286.4533 294.84 302.2 307.1866 311.0399 319.2266 331.72 338.5466 346.7333 355.0133 361.8133 366.8 374.16 379.1466 386.5733 394 402.4267 409.7867 416.6934 424.12 429.5734 437 448.64 456.0667 465.2667 472.0934 480.2801 488.5601 493.4667 497.3201 502.7734 515.2267 522.6534 534.2935 542.6801 550.0401 559.7067 563.5601 567.7734 575.2001 580.1868 587.5468 596.7468 605.1334 612.5601 623.5734 627.4268 631.2801 638.7068 646.9868 659.3735 666.8002 673.6002" xml:space="preserve" font-size="13" y="159.2133" stroke="none">Laremiseenétatdetoutedégradationconstatée,avéréeetconfirméeparl’étatdeslieuxest</text>
<text x="76.2 83.6267 91.9067 96.8933 100.7467 108.1733 113.6267 121.0533 133.5067 140.9333 149.2133 158.4133 169.9867 173.84 185.4133 192.24 200.52 207.88 213.3333 221.6533 233.2933 241.68 253.32 257.1733 261.3867 269.5734 275.0267 283.3467 290.7067 298.9867 302.8401 309.64 317.0001 321.9867 329.4134 337.6934 343.1467" xml:space="preserve" font-size="13" y="174.7467" stroke="none">entièrementàlachargedel’organisateur.</text>
<text x="76.2 83.3067 87.52 95.7067 101.16 109.48 116.84 125.12 128.9733 135.7733 143.1333 148.12 155.5467 163.8267 173.4933 185.0667 192.4933 204.9867 211.8133 220.0933 227.4533 232.9067 241.2267 252.8667 256.72 268.2933 275.12 283.3067 287.16 291.0133 298.44 305.2667 310.2533 321.8933 329.32 338.52 342.3734 346.5867 354.0134 362.2934 366.1467 373.5734 380.48 387.9067 400.36 407.7867 416.0667" xml:space="preserve" font-size="13" y="190.28" stroke="none">L’organisateuraenchargelacollecteetl’enlèvement</text>
<line clip-path="url(#clipPath12)" fill="none" text-rendering="optimizeSpeed" x1="269" x2="421" y1="192" y2="192"/>
<text x="425.2667 433.6534 441.08 452.0934 460.48 467.9067 474.7333 483.0133 490.44 495.4267 506.44 510.2933 517.0933 523.8933 532.1733 543.1866 551.5733 563.2133 567.0667 578.64 591.0933 598.4532 606.7333 610.5866 615.4933 622.92 629.72 634.7067 642.0667 647.0533 650.9067 659.0933 667.3734" xml:space="preserve" font-size="13" y="190.28" stroke="none">desdéchetsissusdelamanifestation.</text>
<text x="76.2 83.5733 90.9333 101.9467 110.3333 121.9733 128.8 136.9867 145.2667 150.2533 157.68 165.96 173.32 181.6 190.8 198.2267 210.72 217.6266 225.0533 230.5067 235.96 243.3867 251.8133 260.0933 268.16 276.5467 280.76 288.12 291.9733 298.8 306.9867 315.1733 319.0267 329.6667 337.0267 349.52 356.32 363.7467 367.6 380.0934 388.48 395.9067 406.92 414.3467 421.1467 429.5333 436.8933 443.72 451.1466 462.16 469.0667 476.4933 481.9467 486.9333 493.7333" xml:space="preserve" font-size="13" y="205.8134" stroke="none">Pasdecontenantenverre,nid’alcool*auseindesespacesverts.</text>
<text x="76.2 84.6267 92.8133 101.0933 106.08 117.72 124.52 129.5067 134.96 143.24 150.0667 155.0533 163.3333 168.7867 180.4267 188.8133 197 200.8533 210.0533 217.48 222.4667 227.92 239.56 246.92 252.3733 257.8267 261.68 274.1333 281.56 293.2 301.5867 308.9467 318.6133 322.4667 329.8933 336.6933 341.68 349.04 357.36" xml:space="preserve" font-size="13" y="221.3467" stroke="none">Toutestructuredoitêtrearriméeparlestage</text>
<line clip-path="url(#clipPath14)" fill="none" text-rendering="optimizeSpeed" x1="240" x2="364" y1="223" y2="223"/>
<text x="369 376.4267 385.6267 393.9067 402.0934 414.5867 422.9734 430.3334 440.0001 448.3867 452.2401 460.6267 468.9067 476.3334 481.32 488.6801 497.0001 504.4267 512.8534 521.2401 529.5201 536.9468 545.0134 553.4001 561.6801 573.3201 580.1201 588.3068 592.1601 601.3601 605.2134 616.8535 623.6534 631.8401 635.6934" xml:space="preserve" font-size="13" y="221.3467" stroke="none">etnonparpiquetage,quelquesoitlesol.</text>
<text x="76.2 83.3867 91.4533 99.84 107.2667 118.28 125.1867 132.6133 140.8933 144.7467 151.5733 159.8533 163.7067 171.1333 182.1467 188.9467 197.1333 205.4133 214.6133 221.9733 230.2533 235.24 243.4267 248.88 252.7333 259.5333 266.96 273.76 282.1867 286.04 297.6134 304.44 308.2934 313.7467 320.5734 328.8534 332.7067 340.0667 345.0534 348.9067 357.0934 369.5867 376.3867 380.6001 388.0267 392.9334 397.8401 405.2668 412.0934 417.0801 425.3601 437.0001 445.2801 453.5601 457.4134 465.8001 474.0801 481.5067 493.9601 501.3867 509.6667 518.8668 525.6667 533.9468 543.6134 547.4667 554.8934 565.9067 573.2667 577.1201 580.9734 588.4001 595.8268 606.8401 613.6667 621.0267 626.48 631.9333 640.12 646.92 653.72 661.08 669.4666 673.3199 680.7466 687.5466 695.9733 700.8799 708.3066 716.5867" xml:space="preserve" font-size="13" y="236.88" stroke="none">Sidesvéhiculessontautorisés,lacirculations’effectueuniquementsurlesalléescarrossables,feux</text>
<text x="76.2 84.5867 96.2267 104.6133 112.04 117.0267 122.48 129.9067 136.7067 143.5067 150.9333 161.9467 169.3067 176.1333 181.12 184.9733 193.16 201.44 209.72 217.1467 223.9467 232.3733 236.2267 247.8 254.7066 258.56 263.5467 270.9733 277.7733 284.5733 296.2133 303.64 310.44 319.64 328.0266 339.6667 348.0933 356.52 364.3066 376.76 383.7466 396.24 408.6933 416.0533 424.2267 431.4134 439.8401 443.6935 451.1201 462.1335 470.4135 477.2134 484.5734 492.8934 500.3201 505.7734 516.7867 525.1734 532.6001 543.6134 552.0001 559.36 564.8134 571.64 582.6533 589.4533 597.64 605.92 615.12 623.5067 628.96 632.8133 640.9999 646.4532 650.3066 655.2933 662.6533 666.5066 671.9599 679.3866 690.3999 697.1999 705.4799 715.1465 718.9999 726.4266" xml:space="preserve" font-size="13" y="252.4134" stroke="none">dedétressesactionnés,lavitesseestde10km/hmaxi;lesusagersdesparcssontprioritairessurles</text>
<line clip-path="url(#clipPath16)" fill="none" text-rendering="optimizeSpeed" x1="440" x2="732" y1="254" y2="254"/>
<text x="76.2 83.1067 90.5333 98.8133 102.6667 109.4933 117.7733 121.6267 129.0533" xml:space="preserve" font-size="13" y="267.9467" stroke="none">véhicules</text>
<line clip-path="url(#clipPath17)" fill="none" text-rendering="optimizeSpeed" x1="77" x2="135" y1="270" y2="270"/>
<text x="135.8533" xml:space="preserve" font-size="13" y="267.9467" clip-path="url(#clipPath17)" stroke="none">.</text>
<text x="76.2 80.04 88.1067 95.5333 102.3333 111.5333 115.3867 123.6667 128.6533 136.08 141.5333 149.92 153.7733 162.9733 171.36 183 188.4534 196.64 204.92 208.7733 216.2 225.8667 233.2934 238.28 245.2667 253.4533 265.9467 272.7467 277.7333 285.0933 290.08 293.9333 302.12 310.4 318.68 326.1067 335.7733 342.5733 350.8533 360.52 364.3734 371.8 382.8134 390.24 397.04 405.4267 412.7867 419.6133 427.04 438.0533 444.96 452.3867 460.7067 468.1334 473.12 480.48 484.3334 488.1867 494.9867 502.4134 513.4267 517.76 526.1467 533.5734 537.4267 545.6133 553.8934 560.6934 568.1201 576.5467 589 596.36 603.16 609.96 613.8133 618.72 622.9333 635.6 643.2666 651.6932 655.5466 662.9733" xml:space="preserve" font-size="13" y="283.48" stroke="none">Ilestinterditderouleret/oustationnersurlesespacesvégétalisés(pelouse,massif,…);les</text>
<text x="76.2 83 87.9867 95.3467 100.3333 104.1867 112.3733 120.6533 128.9333 136.36 148.8133 156.24 164.52 169.5067 180.52 187.88 196.16 201.1467 209.3333 214.7867 218.64 225.44 232.8667 243.88 252.16 263.8 272.1867 279.6133 287.8933 294.8 302.2267 310.5067 319.7067 327.1334 332.12 337.5734 349.2134 356.64 361.5467 366.4534 373.8801 380.7067 385.6934 393.9734 401.4001 412.4134 420.8 429.08 440.7201 447.5201 455.8 465.4667 473.8534 481.2801 492.2934 499.0934 507.2801 511.1334 522.1467 529.5067 537.8934 545.2534 553.64 558.6267 566.0534 577.0667 584.4934 593.6934 601.9734 610.1601 622.6534 635.1068 642.5334 650.8135 659.2001 663.0535 670.4802 677.2802" xml:space="preserve" font-size="13" y="299.0134" stroke="none">stationnementsautorisésnepeuventêtreeffectuésquesurdessolsadaptésetnonmeublés.</text>
<text x="76.2 83.4267 95.92 102.7467 110.1067 121.12 129.5067 141.1467 146.6 150.4534 157.2534 165.64 173.92 185.56 193.9467 205.5867 213.9734 219.4267 227.6134 231.6667 239.0934 245.92 250.9067 254.76 262.9467 271.2267 279.6534 288.04 299.6801 306.48 314.6667 322.9467 326.8 330.6534 334.5067 342.7867 348.2401 355.6667 364.0934 372.4801 384.1201 392.5067 397.9601 406.2401 410.0934 418.3734 423.8268 435.4668 443.8534 451.2134 460.8801 469.2668 477.5468 484.9734 488.8268 497.2134 505.4934 512.9201 523.9334 536.3867 543.7467 548.7334 556.1601 561.6134 565.4667 572.8267 581.1068 593.4934 601.8801 610.1601 621.8001 628.6001 640.2401 647.0401 655.2267 659.0801 666.5068 674.7868 679.7735 688.2001 692.0535 703.6935 710.4935 718.6801" xml:space="preserve" font-size="13" y="314.5467" stroke="none">Encasderisquedeprojection,desouillure,debrûlureparquelquesmatériauxquesesoient,lesol</text>
<text x="76.2 84.5867 92.7733 96.6267 105.8267 113.2533 118.24 123.6933 135.3333 143.72 149.1733 157.36 162.3467 169.7733 178.0933 185.52" xml:space="preserve" font-size="13" y="330.08" stroke="none">doitêtreprotégé.</text>
<text x="76.2 80.04 88.1067 95.5333 102.3333 111.5333 115.3867 123.6667 128.6533 136.08 141.5333 149.92 153.7733 162.9733 171.36 183 195.4534 203.64 212.0267 215.88 220.7867 224.64 232.0667 237.52 245.9467 252.7733 260.96 269.24 277.6267 285.0533 290.5067 298.9334 307.32 314.7467 319.7334 327.16 332.6134 336.4667 344.6534 350.1067 357.5334 367.2001 372.1867 380.3734 388.6534 397.8534 410.3068 417.6667 424.4667 431.2667 435.1201 440.0267 448.4534 455.8134 461.2668 469.6534 475.1068 486.7468 494.9334 507.4268 514.8535 521.6534 530.0401 537.4001 544.2267 555.8668 562.7734 570.2001 575.6534 580.6401" xml:space="preserve" font-size="13" y="345.6134" stroke="none">Ilestinterditdemodifier,couper,détériorertoutmassif,arbreouespacevert.</text>
<text x="76.2 83.3067 94.88 101.68 109.8667 113.72 117.5733 121.4267 128.2533 132.1067 137.0933 144.4533 149.44 153.2933 161.48 173.9733 182.16 194.6533 198.5067 202.72 211 215.9866 219.84 223.6933 227.5466 234.3466 241.7066 246.6933 250.5466 258.7333 271.2267 279.6133 291.2533 296.24 304.4267 312.7067 321.9067 329.2667 334.72 343.1067 348.56 360.2 368.5867 376.7733 380.6267 389.8267 394.7334 402.0934 405.9467 411.4001 423.0401 431.4267 436.8801 444.3067 451.6667 455.5201 462.8801 471.2667 475.1201 482.5467 495.0001 502.4267 510.7067" xml:space="preserve" font-size="13" y="361.1467" stroke="none">Lasollicitationoul’utilisationdetoutarbredoitfairepréalablement</text>
<line clip-path="url(#clipPath21)" fill="none" text-rendering="optimizeSpeed" x1="424" x2="515" y1="363" y2="363"/>
<text x="519.9067 523.76 527.9733 536.16 544.5466 548.6 556.0267 565.2267 573.6133 577.8267 586.1067 594.3867 606.0267 614.4134 621.8401 634.2934 641.6534 649.9334 658.3201 669.9601 678.3467" xml:space="preserve" font-size="13" y="361.1467" stroke="none">l’objetd’unedemandede</text>
<text x="76.2 84.5867 88.44 95.8 104.12 112.4 120.5867 127.3867 132.3733 136.2267 147.2667 154.6267 162.9067 171.2933 176.7467 184.1733 195.1867 203.5733 216.0667 223.2533 230.68 236.1333 243.04 246.8933 253.72 265.36 274.56 280.0134 288.4 293.8534 301.28 312.2934 320.68 332.32 336.1734 347.7467 357.7334 361.5867 367.0401 374.4667 381.2934 386.2801 390.1334 398.3201 410.8134 419.2001 426.6267 437.6401 444.8667 451.6667 460.0534 467.4134 474.2401 481.6667 492.6801 501.4001 508.8267 514.28 519.2667 526.0667 534.4933 541.8533 546.76 550.6133 563.1067 571.4933 575.7067 583.8933 592.28 597.2667 604.6934 612.9734 616.8267 626.4933 634.7734 647.2667 654.0934 662.28 670.5601 677.36 682.3467 689.7067" xml:space="preserve" font-size="13" y="376.6801" stroke="none">diagnosticauprèsduServiceArbresdelaDirectiondesEspacesVerts,afind’obtenirunconstat</text>
<text x="76.2 83 90.36 98.64 102.4933 107.48 114.84 118.6933 124.1467 131.5733" xml:space="preserve" font-size="13" y="392.2134" stroke="none">sanitaire.</text>
<text x="76.2 83.3067 94.9467 107.4 115.5867 123.9733 127.8267 131.68 135.5333 142.96 152.6267 160.9067 166.36 174.7467 182.1067 185.96 194.24 202.6667 210.0267 213.88 222.16 228.96 237.0267 245.4134 253.6934 265.3334 269.1867 276.6134 287.6267 291.6801 299.1067 307.3867 319.7734 328.1601 336.3467 340.2001 347.1068 354.5334 362.8134 372.0134 379.4401 384.4268 389.8801 401.5201 406.9734 414.4001 421.2001 429.5868 437.0134 443.8401 448.8268 456.2534 463.0534 471.4801 478.2801 486.3468 493.1734 500.6001 508.8801 517.0534 524.7734 531.6 539.6667 548.0533 555.48 562.3867 569.7467 573.6 581.0267 589.3068 598.5068 605.9335 610.9202 616.3735 628.0135 636.4001 643.8268 652.2135 660.4001 667.2001 674.6268 685.6401 693.9202 702.2002" xml:space="preserve" font-size="13" y="407.7467" stroke="none">Lemobilierurbain,ainsiquelesjeuxdoiventêtrerespectés,siceux-cidevaientêtredéposésune</text>
<text x="76.2 84.5867 92.0133 104.4667 111.8267 120.1067 128.4933 140.1333 148.52 155.9467 161.4 166.3867 170.24 178.52 185.9467 194.2267 199.2133 210.8533 218.28 227.48 231.5333 239.8133 246.6133 251.6 255.4533 260.36 264.2133 271.64 283.28 291.6667 299.8533 303.7067 312.9067 320.3333 325.32 330.7733 342.4134 347.32 354.6801 358.5334 363.5201 375.1601 382.5201 387.4268 391.2801 403.7734 412.1601 416.3734 424.5601 432.9468 437.9334 445.3601 453.6401 457.4934 467.1601 471.0135 475.2268 482.5868 489.4935 496.8535 504.9201 513.3068 525.8002 532.6002 540.0269 545.4802 552.3868 556.2402 563.0668 574.7068 581.5335 589.7202 598.0002 604.8268 612.2535 617.7068 625.9869 636.7469 645.1735 649.0269 660.6002 670.5869 674.4402 679.8935 687.3202 694.1469 699.1335 702.9869 711.1735" xml:space="preserve" font-size="13" y="423.28" stroke="none">demandepertinenteetjustifiéedoitêtrefaiteafind’obtenirl’avalduserviceconcerné;laDirection</text>
<text x="76.2 84.5867 92.0133 103.0267 110.2533 117.0533 125.44 132.8 139.6267 147.0533 158.0667 166.7867 174.2133 179.6667 184.6534 195.6667 203.0934 215.5867 220.4933 228.68 236.96 243.7867 248.7733 252.6267 260.8133 273.3067 281.6933 289.12 300.1333 312.5867 316.44 323.24 330.04 333.8933 342.08 350.36 361.3733 368.8 378 382.9867 390.3467 397.1733 405.4533 412.88 423.8933 432.28 440.56 448.6267 452.48 460.76 468.8267 472.68 480.96 487.7867 495.9734 508.4267 516.8134 524.2401 532.5201 541.7201 550.1068 557.5334 565.8135 575.0135 583.2935 594.9335 603.3202 610.6802 621.6935 629.1202 634.1069 639.5602 651.2002 658.6269 671.1202 683.5735 691.0002 697.8002 706.0803 711.5336 723.1736 731.5602" xml:space="preserve" font-size="13" y="438.8134" stroke="none">desEspacesVertsenfonctiondesmissionsettâchesquiluiincombentpeutnepasêtreenmesured’</text>
<text x="76.2 83.56 90.36 97.16 105.44 110.8933 118.32 127.9867 134.8133 142.24 147.2267 152.2133 163.8533 172.24 177.6933 185.12 191.92 196.9067 204.2667 209.2533 213.1067 221.2933 229.5733 238 246.3867 254.5733 262.8533 272.0533 279.48 283.3333 287.1867 298.8267 307.1067 311.32 322.8934 331.2801 338.6401 349.6534 357.8401 366.2267 370.0801 373.9334 382.2534 389.6134 394.6001 398.4534 406.6401 414.9201 423.3468 430.4534 434.6668 442.8535 448.3068 456.6268 463.9868 472.2668 476.1201 482.9201 490.2802 495.2668 502.6935 510.9735 520.6401 529.0268 537.2134 545.4935 550.9468 556.4001 567.9734 574.7734 582.96 586.8134 590.6667 594.52 601.3467 605.2 610.1867 617.6134 627.28 635.5601 643.8401 655.4801 662.9068 671.1868 676.1735 681.6268 689.0535 697.4402 702.8935 706.7468 713.5468" xml:space="preserve" font-size="13" y="454.3467" stroke="none">assurercetteprestation,dontellen’apasobligation.L’organisateurpourrasolliciteruneentreprise</text>
<text x="76.2 84.5867 92.8667 100.2267 104.08 107.9333 112.84 116.6933 124.12 135.76 144.1467 151.5067 159.7867 170.8 174.6534 186.2934 194.68 202.8667 215.32 222.68 226.5334 234.8134 246.4534 254.84 260.2934 268.48 273.3867 280.8134 287.6134 294.4134 298.2667 306.4534 314.7334 323.0134 330.44 338.5067 345.3334 353.5201 361.8 368.6 372.4534 380.84 388.2667 393.72 401.1467 409.5734 417.8534 430.3467 437.7734 442.7601 450.1201 459.3201 467.7067 475.1334 486.1467 490.0001 493.8534 501.2801 509.5601 521.9467 529.3067 536.2134 543.5734 551.8534 561.0534 568.4801 577.6801 585.0401 593.4268 598.8801 606.3068 617.3201 621.1734 628.6001 639.6134 647.8 656.1867 663.6134 669.0667 676.4267 681.4134 685.2667 693.4534 701.7334 712.7467 719.5467 726.9734 732.4267" xml:space="preserve" font-size="13" y="469.88" stroke="none">qualifiéedansledomaineprofessionnelconsidéré,unétatdeslieuxavantetaprèslesopérationssera</text>
<text x="76.2 83.6267 88.6133 95.9733 104.36 108.2133 116.28 123.7067 131.9867 136.9733 142.4267 154.0667 157.92 162.1333 170.32 175.7733 184.0933 191.4533 199.7333 203.5867 210.3867 217.7467 222.7333 230.16 238.44 243.8933 252.32 256.1733 260.3867 267.8134 276.0934 281.08 286.5334 293.96 302.3467 307.8 311.6534 318.4533 330.0934 337.52 346.72 350.5734 362.1467 370.5334 374.3867 379.84 387.2667 394.0934 399.08 402.9333 411.12 423.6134 432 439.4267 450.44 457.8667 464.6667 473.0533 480.4133 487.24 494.6667 505.68 512.5867 520.0134 525.4667 530.4534 537.2534" xml:space="preserve" font-size="13" y="485.4134" stroke="none">établientrel’organisateur,l’entrepriseetladirectiondesespacesverts.</text>
<text x="76.2 83.3067 87.52 94.88 101.7067 108.5333 115.96 126.9733 134.4 143.6 147.4533 151.6667 155.52 163.8 170.6 175.5867 182.9467 186.8 190.6533 198.0133 203 206.8533 215.04 227.5333 235.92 247.56 252.5467 260.7333 269.0133 278.2133 285.64 294.0267 302.3067 306.16 314.5467 321.9733 334.4267 341.8533 350.1333 363.5467 371.9333 379.2933 387.5733 398.5867 402.44 409.8667 420.88 429.2667 436.6266 443.4266 450.2266 454.08 462.36 473.3733 481.7599 489.1866 500.2 505.1066 513.2933 521.5733 526.56 533.92 537.7733 546.0533 553.48 564.4933 571.2933 579.48 587.76 596.96 600.8134 609.0934 614.0801 621.5068 626.9601 635.3467 639.2001 644.1868 650.9868 659.4134 666.7734 671.6801 675.5334 688.0267 696.4134" xml:space="preserve" font-size="13" y="500.9467" stroke="none">L’accèsetl’installationdetoutéquipementdanslesbassinsdesfontainessontinterdits,afinde</text>
<text x="76.2 84.5867 90.04 97.4667 104.2667 111.6933 117.1467 124.0533 131.48 141.1467 145 152.4267 163.44 170.24 175.2267 180.68 188.96 195.7867 200.7733 209.0533 214.5067 221.9333 232.9467 241.3334 245.5467 252.9734 257.96 265.32 273.6 280.4267 288.7067 296.1333 299.9867 304.9733" xml:space="preserve" font-size="13" y="516.48" stroke="none">préserverlesstructuresd’étanchéité</text>
<text x="76.2 83.3067 94.88 104.8667 108.72 114.1733 121.6 128.4267 133.4133 137.2667 145.4533 157.9467 166.3333 173.76 184.7733 192 198.8 207.1867 214.5467 221.3733 228.8 239.8133 248.5333 255.96 261.4133 266.4 277.4133 284.84 291.64 300.84 307.6667 315.0933 320.5467 325.5333 329.3867 334.2933 338.1467 345.5733 357.2133 361.0533 368.24 378.6 387.0267 395.4534 403.88 412.3067 420.7334 429.1601 433.0134 440.4401 451.4534 463.9067 471.2667 479.5467 483.4001 488.3067 495.7334 502.5334 507.5201 514.8801 519.8668 523.7201 531.9067 540.1868 551.2001 559.3867 564.84 573.16 580.52 588.8 592.6534 599.4534 606.8801 614.3068 625.3201 632.6801 645.1734 651.9734 659.4001 663.2534 675.7468 684.1334 691.5601" xml:space="preserve" font-size="13" y="532.0134" stroke="none">LaDirectiondesEspacesVertsestcertifiéeISO14001,lesmanifestationsorganiséesauseindes</text>
<text x="76.2 83.6267 90.4267 98.8133 106.1733 113 120.4267 131.44 138.24 146.4267 154.7067 165.72 172.52 184.0934 192.4134 199.84 206.64 211.6267 215.48 223.6667 236.16 244.5467 252.7334 256.5867 263.4934 270.92 279.2 288.4001 293.8534 301.2801 308.08 316.4667 323.8934 330.72 335.7067 343.1334 352.8 359.6267 367.0534 376.2534 383.6801 391.9601 400.2801 407.6401 415.9601 423.3867 435.8401 443.2668 451.5468 456.5334" xml:space="preserve" font-size="13" y="547.5468" stroke="none">espacessoussagestiondoiventrespectercetengagement.</text>
<text x="28.2 44.5956 51.969 59.329 76.0979 84.4846 88.6979 96.0579 99.9113 106.7379 114.9246 123.1113 126.9646 141.1469 147.9469 156.1336 164.4136 181.1825 186.6359 194.0625 200.8625 208.2892 213.7425 220.6492 238.0448 246.4315 250.6448 258.0048 266.2848 271.2715 279.4582 284.9115 288.7648 295.5648 302.9248 307.9115 311.7648 319.9515 338.2004 346.5871 354.0138 357.8671 361.7204 368.6271 374.0804 381.5071 398.9027 407.2894 414.6494 430.0717 433.925 451.254 459.6407 463.494 468.9473 476.374 483.2007 488.1873 492.0406 500.2273 518.4763 525.2763 532.703 539.5297 547.8097 553.263 557.1163 562.103 579.4987 587.8853 593.3386 600.7653 607.672 615.0987 623.3787 628.3654 632.2188 640.4054 648.6854 662.8677 669.6677 677.0944 683.921 688.9077 692.761 700.9477 719.1967 727.5833 735.01" xml:space="preserve" font-size="13" y="563.0801" stroke="none">*Pasd’alcool,sousréserved’autorisationdélivréeparladirectionsécuritéprévention,sectiondes</text>
<text x="28.2 35.56 43.84 48.8267 57.0133 62.4667 66.32 73.12 80.48 85.4667 89.32 97.5067 105.7867 116.8 125.1867 136.8267 140.68 144.5333 151.36 158.7867 167.0667 173.8933 185.5333 193.92 201.3467 212.36 220.7467 228.9333 232.7867 239.5867 246.3867 254.5733 262.8533 269.6533" xml:space="preserve" font-size="13" y="578.6134" stroke="none">autorisationsdelicencedesboissons.</text>
</g>
<g font-family="'Lucida Sans'" font-size="13" text-rendering="optimizeSpeed">
<rect x="20" width="1" height="560" y="37" clip-path="url(#clipPath1)" stroke="none"/>
<rect x="748" width="1" height="560" y="37" clip-path="url(#clipPath1)" stroke="none"/>
</g>
<g fill="red" font-size="13" font-weight="bold" font-family="'Lucida Sans'" stroke="red">
<text x="49.4 53.5743 61.835 67.053 75.0873 80.8082 93.0043 100.3975 105.4897 109.576 117.6104 125.871 137.1242 143.8132 151.8475 164.0437 172.3798 176.4661 183.8341 196.0302 203.3982 211.6589 216.7511 224.1442 228.2306 233.9514 241.3194" xml:space="preserve" y="628.8467" stroke="none">Informationscomplémentaires</text>
<text x="251.7567" xml:space="preserve" y="628.8467" clip-path="url(#clipPath30)" font-weight="normal" stroke="none">:</text>
<text x="264 268 272 276 280 284 288 292 296 300 304 308 312 316 320 324 328 332 336 340 344 348 352 356 360 364 368 372 376 380 384 388 392 396 400 404 408 412 416 420 424 428 432 436 440 444 448 452 456 460 464 468 472 476 480 484 488 492 496 500 504 508 512 516 520 524 528 532 536 540 544 548 552 556 560 564 568 572 576 580 584 588 592 596 600 604 608 612 616 620 624 628 632 636 640 644 648 652 656 660 664 668 672 676 680 684 688 692 696 700 704 708 712 716 720 724" y="628" text-rendering="optimizeSpeed" stroke="none" font-weight="normal" xml:space="preserve">....................................................................................................................</text>
<text x="53 57 61 65 69 73 77 81 85 89 93 97 101 105 109 113 117 121 125 129 133 137 141 145 149 153 157 161 165 169 173 177 181 185 189 193 197 201 205 209 213 217 221 225 229 233 237 241 245 249 253 257 261 265 269 273 277 281 285 289 293 297 301 305 309 313 317 321 325 329 333 337 341 345 349 353 357 361 365 369 373 377 381 385 389 393 397 401 405 409 413 417 421 425 429 433 437 441 445 449 453 457 461 465 469 473 477 481 485 489 493 497 501 505 509 513 517 521 525 529 533 537 541 545 549 553 557 561 565 569 573 577 581 585 589 593 597 601 605 609 613 617 621 625 629 633 637 641 645 649 653 657 661 665 669 673 677 681 685 689 693 697 701 705 709 713 717 721" y="646" text-rendering="optimizeSpeed" stroke="none" font-weight="normal" xml:space="preserve">........................................................................................................................................................................</text>
<text x="63.4825 72.7365 77.8287 81.915 86.0014 90.0877 97.1917 104.5848 109.677 113.7633 121.7977 134.2076 142.2419 154.6518 161.7557 169.7901 173.8764 177.9628 182.0491 188.7381 192.8244 197.9166 205.3098 210.4019 214.4883 222.5226 234.9325 243.2686 246.3743 253.7674 259.4883 267.8244 273.5452 280.9132 291.3505" xml:space="preserve" y="658.988" stroke="none">Utilisationousollicitationd’arbres?</text>
<text fill="blue" x="70.0793 78.7549 86.7893 95.05 104.2914 112.6275 120.6619 127.7658 134.8697 138.9561 146.3241 156.1941 164.4548 172.4892 184.899 192.2922 198.9812 205.6702 213.7046 225.9007 234.2368 241.6299 249.9283 258.189 269.7062 278.0423 290.4522 298.7883 302.8747 310.2678 318.5662 326.8269 334.8612 341.9652 347.0574 351.1437 361.9819 369.0859 376.479 384.7397 388.826 393.9182 401.3113 405.3977 411.1185 422.6357 430.9718 443.3817 450.5611 457.9291 463.6499 471.1059 475.1923 481.8813 493.3985 502.6524 508.3733 516.7094 522.4303 533.9474 541.0514 548.4194 554.1403" xml:space="preserve" y="674.5214" stroke="none">ToutdossiernonaccompagnédudiagnosticsanitaireduServiceArbresera</text>
<text x="565.6825 572.7864 580.1167 587.2206 592.3129 599.6808 611.877 619.2701 624.3623 628.4486 636.7847 645.0454 652.4134 664.6095 671.9775 680.2382 689.4796 695.2004 702.5684 707.7864 716.0471 723.151 730.519" xml:space="preserve" y="674.5214" stroke="none">systématiquementrefusé.</text>
<line clip-path="url(#clipPath33)" fill="none" text-rendering="optimizeSpeed" x1="566" x2="733" y1="676" y2="676"/>
<rect x="21" y="597" clip-path="url(#clipPath1)" width="453" text-rendering="optimizeSpeed" height="1" stroke="none"/>
<rect x="20" y="598" clip-path="url(#clipPath1)" width="1" text-rendering="optimizeSpeed" height="87" stroke="none"/>
<rect x="21" y="685" clip-path="url(#clipPath1)" width="453" text-rendering="optimizeSpeed" height="1" stroke="none"/>
<rect x="20" y="685" clip-path="url(#clipPath1)" width="1" text-rendering="optimizeSpeed" height="1" stroke="none"/>
<rect x="20" y="597" clip-path="url(#clipPath1)" fill="black" width="1" text-rendering="optimizeSpeed" height="1" stroke="none"/>
<rect x="475" y="597" clip-path="url(#clipPath1)" width="112" text-rendering="optimizeSpeed" height="1" stroke="none"/>
<rect x="475" y="685" clip-path="url(#clipPath1)" width="112" text-rendering="optimizeSpeed" height="1" stroke="none"/>
<rect x="474" y="685" clip-path="url(#clipPath1)" width="1" text-rendering="optimizeSpeed" height="1" stroke="none"/>
<rect x="474" y="597" clip-path="url(#clipPath1)" width="1" text-rendering="optimizeSpeed" height="1" stroke="none"/>
<rect x="588" y="597" clip-path="url(#clipPath1)" width="160" text-rendering="optimizeSpeed" height="1" stroke="none"/>
<rect x="588" y="685" clip-path="url(#clipPath1)" width="160" text-rendering="optimizeSpeed" height="1" stroke="none"/>
<rect x="748" y="598" clip-path="url(#clipPath1)" width="1" text-rendering="optimizeSpeed" height="87" stroke="none"/>
<rect x="748" y="597" clip-path="url(#clipPath1)" fill="black" width="1" text-rendering="optimizeSpeed" height="1" stroke="none"/>
<rect x="748" y="685" clip-path="url(#clipPath1)" width="1" text-rendering="optimizeSpeed" height="1" stroke="none"/>
<rect x="587" y="685" clip-path="url(#clipPath1)" width="1" text-rendering="optimizeSpeed" height="1" stroke="none"/>
<rect x="587" y="597" clip-path="url(#clipPath1)" width="1" text-rendering="optimizeSpeed" height="1" stroke="none"/>
<path fill="white" text-rendering="optimizeSpeed" d="M39.3333 588.9334 L39.3333 615.4634 L425.7333 615.4634 L425.7333 588.9334 Z" clip-path="url(#clipPath34)" stroke="none"/>
</g>
<g font-size="13" fill="red" text-rendering="geometricPrecision" font-family="'Lucida Sans'" shape-rendering="crispEdges" stroke="red" font-weight="bold">
<text x="49 53.1744 57.3487 60.4543 68.7527 71.8583 84.3059 97.7091 105.4165 114.0921 121.6487 130.6009 134.7753 141.9547 149.5112 162.336 172.6839 186.0871 199.4902 204.7459 215.0938 219.2681 228.937 238.9077 247.5833 259.289 266.8456 280.6637 289.9177 299.5865 309.2554 316.812 325.1984 336.0883" xml:space="preserve" y="606.5067" stroke="none">II.7.3APRECISEROUAJOINDREENANNEXE:</text>
</g>
</g>
</svg>
